<mxfile host="app.diagrams.net" modified="2024-04-18T21:49:55.741Z" agent="Mozilla/5.0 (Windows NT 10.0; Win64; x64) AppleWebKit/537.36 (KHTML, like Gecko) Chrome/124.0.0.0 Safari/537.36" etag="fo_zQIkhoXWlYpcxn-Sy" version="24.2.5" type="github">
  <diagram id="C5RBs43oDa-KdzZeNtuy" name="Page-1">
    <mxGraphModel dx="1500" dy="1926" grid="1" gridSize="10" guides="1" tooltips="1" connect="1" arrows="1" fold="1" page="1" pageScale="1" pageWidth="827" pageHeight="1169" math="0" shadow="0">
      <root>
        <mxCell id="WIyWlLk6GJQsqaUBKTNV-0" />
        <mxCell id="WIyWlLk6GJQsqaUBKTNV-1" parent="WIyWlLk6GJQsqaUBKTNV-0" />
        <mxCell id="sVPTDgXXpyOsoHTpZXYm-43" value="Personal Branch 2" style="whiteSpace=wrap;html=1;aspect=fixed;fontSize=28;labelPosition=center;verticalLabelPosition=bottom;align=center;verticalAlign=top;fontStyle=1" vertex="1" parent="WIyWlLk6GJQsqaUBKTNV-1">
          <mxGeometry x="134" y="280" width="280" height="280" as="geometry" />
        </mxCell>
        <mxCell id="sVPTDgXXpyOsoHTpZXYm-41" value="Personal Branch 1" style="whiteSpace=wrap;html=1;aspect=fixed;fontSize=28;labelPosition=center;verticalLabelPosition=top;align=center;verticalAlign=bottom;fontStyle=1" vertex="1" parent="WIyWlLk6GJQsqaUBKTNV-1">
          <mxGeometry x="134" y="-30" width="280" height="280" as="geometry" />
        </mxCell>
        <mxCell id="sVPTDgXXpyOsoHTpZXYm-9" value="" style="edgeStyle=orthogonalEdgeStyle;rounded=0;orthogonalLoop=1;jettySize=auto;html=1;" edge="1" parent="WIyWlLk6GJQsqaUBKTNV-1" source="sVPTDgXXpyOsoHTpZXYm-0" target="sVPTDgXXpyOsoHTpZXYm-8">
          <mxGeometry relative="1" as="geometry" />
        </mxCell>
        <mxCell id="sVPTDgXXpyOsoHTpZXYm-0" value="Dev1" style="shape=umlActor;verticalLabelPosition=bottom;verticalAlign=top;html=1;outlineConnect=0;" vertex="1" parent="WIyWlLk6GJQsqaUBKTNV-1">
          <mxGeometry x="40" y="40" width="30" height="60" as="geometry" />
        </mxCell>
        <mxCell id="sVPTDgXXpyOsoHTpZXYm-7" value="" style="edgeStyle=orthogonalEdgeStyle;rounded=0;orthogonalLoop=1;jettySize=auto;html=1;" edge="1" parent="WIyWlLk6GJQsqaUBKTNV-1" source="sVPTDgXXpyOsoHTpZXYm-3" target="sVPTDgXXpyOsoHTpZXYm-6">
          <mxGeometry relative="1" as="geometry" />
        </mxCell>
        <mxCell id="sVPTDgXXpyOsoHTpZXYm-3" value="Dev2" style="shape=umlActor;verticalLabelPosition=bottom;verticalAlign=top;html=1;outlineConnect=0;" vertex="1" parent="WIyWlLk6GJQsqaUBKTNV-1">
          <mxGeometry x="40" y="310" width="30" height="60" as="geometry" />
        </mxCell>
        <mxCell id="sVPTDgXXpyOsoHTpZXYm-19" value="" style="edgeStyle=orthogonalEdgeStyle;rounded=0;orthogonalLoop=1;jettySize=auto;html=1;" edge="1" parent="WIyWlLk6GJQsqaUBKTNV-1" source="sVPTDgXXpyOsoHTpZXYm-6" target="sVPTDgXXpyOsoHTpZXYm-18">
          <mxGeometry relative="1" as="geometry" />
        </mxCell>
        <mxCell id="sVPTDgXXpyOsoHTpZXYm-21" value="" style="edgeStyle=orthogonalEdgeStyle;rounded=0;orthogonalLoop=1;jettySize=auto;html=1;" edge="1" parent="WIyWlLk6GJQsqaUBKTNV-1" source="sVPTDgXXpyOsoHTpZXYm-6" target="sVPTDgXXpyOsoHTpZXYm-20">
          <mxGeometry relative="1" as="geometry" />
        </mxCell>
        <mxCell id="sVPTDgXXpyOsoHTpZXYm-6" value="&lt;br&gt;Feature 2" style="whiteSpace=wrap;html=1;verticalAlign=top;" vertex="1" parent="WIyWlLk6GJQsqaUBKTNV-1">
          <mxGeometry x="180" y="310" width="200" height="60" as="geometry" />
        </mxCell>
        <mxCell id="sVPTDgXXpyOsoHTpZXYm-12" value="" style="edgeStyle=orthogonalEdgeStyle;rounded=0;orthogonalLoop=1;jettySize=auto;html=1;" edge="1" parent="WIyWlLk6GJQsqaUBKTNV-1" source="sVPTDgXXpyOsoHTpZXYm-8" target="sVPTDgXXpyOsoHTpZXYm-11">
          <mxGeometry relative="1" as="geometry" />
        </mxCell>
        <mxCell id="sVPTDgXXpyOsoHTpZXYm-17" value="" style="edgeStyle=orthogonalEdgeStyle;rounded=0;orthogonalLoop=1;jettySize=auto;html=1;" edge="1" parent="WIyWlLk6GJQsqaUBKTNV-1" source="sVPTDgXXpyOsoHTpZXYm-8" target="sVPTDgXXpyOsoHTpZXYm-16">
          <mxGeometry relative="1" as="geometry" />
        </mxCell>
        <mxCell id="sVPTDgXXpyOsoHTpZXYm-23" value="" style="edgeStyle=orthogonalEdgeStyle;rounded=0;orthogonalLoop=1;jettySize=auto;html=1;" edge="1" parent="WIyWlLk6GJQsqaUBKTNV-1" source="sVPTDgXXpyOsoHTpZXYm-8" target="sVPTDgXXpyOsoHTpZXYm-22">
          <mxGeometry relative="1" as="geometry" />
        </mxCell>
        <mxCell id="sVPTDgXXpyOsoHTpZXYm-8" value="&lt;br&gt;Feature 1&lt;div&gt;&lt;br&gt;&lt;/div&gt;" style="whiteSpace=wrap;html=1;verticalAlign=top;" vertex="1" parent="WIyWlLk6GJQsqaUBKTNV-1">
          <mxGeometry x="180" y="40" width="200" height="60" as="geometry" />
        </mxCell>
        <mxCell id="sVPTDgXXpyOsoHTpZXYm-11" value="&lt;br&gt;&lt;br&gt;Unit Testing" style="ellipse;whiteSpace=wrap;html=1;verticalAlign=top;" vertex="1" parent="WIyWlLk6GJQsqaUBKTNV-1">
          <mxGeometry x="160" y="150" width="80" height="80" as="geometry" />
        </mxCell>
        <mxCell id="sVPTDgXXpyOsoHTpZXYm-16" value="&lt;br&gt;&lt;br&gt;Linting rules" style="ellipse;whiteSpace=wrap;html=1;verticalAlign=top;" vertex="1" parent="WIyWlLk6GJQsqaUBKTNV-1">
          <mxGeometry x="310" y="150" width="80" height="80" as="geometry" />
        </mxCell>
        <mxCell id="sVPTDgXXpyOsoHTpZXYm-18" value="&lt;br&gt;&lt;br&gt;Unit testing&lt;div&gt;&lt;br&gt;&lt;/div&gt;" style="ellipse;whiteSpace=wrap;html=1;verticalAlign=top;" vertex="1" parent="WIyWlLk6GJQsqaUBKTNV-1">
          <mxGeometry x="160" y="430" width="80" height="80" as="geometry" />
        </mxCell>
        <mxCell id="sVPTDgXXpyOsoHTpZXYm-20" value="&lt;br&gt;&lt;br&gt;Linting rules" style="ellipse;whiteSpace=wrap;html=1;verticalAlign=top;" vertex="1" parent="WIyWlLk6GJQsqaUBKTNV-1">
          <mxGeometry x="310" y="430" width="80" height="80" as="geometry" />
        </mxCell>
        <mxCell id="sVPTDgXXpyOsoHTpZXYm-25" value="" style="edgeStyle=orthogonalEdgeStyle;rounded=0;orthogonalLoop=1;jettySize=auto;html=1;" edge="1" parent="WIyWlLk6GJQsqaUBKTNV-1" source="sVPTDgXXpyOsoHTpZXYm-22" target="sVPTDgXXpyOsoHTpZXYm-24">
          <mxGeometry relative="1" as="geometry" />
        </mxCell>
        <mxCell id="sVPTDgXXpyOsoHTpZXYm-22" value="&lt;br&gt;Pull Request&lt;div&gt;&lt;br&gt;&lt;/div&gt;" style="rounded=1;whiteSpace=wrap;html=1;verticalAlign=top;" vertex="1" parent="WIyWlLk6GJQsqaUBKTNV-1">
          <mxGeometry x="500" y="40" width="120" height="60" as="geometry" />
        </mxCell>
        <mxCell id="sVPTDgXXpyOsoHTpZXYm-27" value="" style="edgeStyle=orthogonalEdgeStyle;rounded=0;orthogonalLoop=1;jettySize=auto;html=1;" edge="1" parent="WIyWlLk6GJQsqaUBKTNV-1" source="sVPTDgXXpyOsoHTpZXYm-24" target="sVPTDgXXpyOsoHTpZXYm-26">
          <mxGeometry relative="1" as="geometry" />
        </mxCell>
        <mxCell id="sVPTDgXXpyOsoHTpZXYm-24" value="&lt;br&gt;Code Review&lt;div&gt;&lt;br&gt;&lt;/div&gt;" style="whiteSpace=wrap;html=1;verticalAlign=top;rounded=1;" vertex="1" parent="WIyWlLk6GJQsqaUBKTNV-1">
          <mxGeometry x="700" y="40" width="120" height="60" as="geometry" />
        </mxCell>
        <mxCell id="sVPTDgXXpyOsoHTpZXYm-36" style="edgeStyle=orthogonalEdgeStyle;rounded=0;orthogonalLoop=1;jettySize=auto;html=1;entryX=0.5;entryY=0;entryDx=0;entryDy=0;" edge="1" parent="WIyWlLk6GJQsqaUBKTNV-1" source="sVPTDgXXpyOsoHTpZXYm-26" target="sVPTDgXXpyOsoHTpZXYm-35">
          <mxGeometry relative="1" as="geometry" />
        </mxCell>
        <mxCell id="sVPTDgXXpyOsoHTpZXYm-37" value="Merge Pull Request&lt;div&gt;&lt;br&gt;&lt;/div&gt;" style="edgeLabel;html=1;align=center;verticalAlign=middle;resizable=0;points=[];" vertex="1" connectable="0" parent="sVPTDgXXpyOsoHTpZXYm-36">
          <mxGeometry x="0.0623" y="-3" relative="1" as="geometry">
            <mxPoint x="-39" as="offset" />
          </mxGeometry>
        </mxCell>
        <mxCell id="sVPTDgXXpyOsoHTpZXYm-26" value="&lt;br&gt;Testing pipeline&lt;div&gt;(build + test)&lt;/div&gt;&lt;div&gt;&lt;br&gt;&lt;/div&gt;" style="whiteSpace=wrap;html=1;verticalAlign=top;rounded=1;" vertex="1" parent="WIyWlLk6GJQsqaUBKTNV-1">
          <mxGeometry x="900" y="40" width="120" height="60" as="geometry" />
        </mxCell>
        <mxCell id="sVPTDgXXpyOsoHTpZXYm-28" value="" style="edgeStyle=orthogonalEdgeStyle;rounded=0;orthogonalLoop=1;jettySize=auto;html=1;" edge="1" parent="WIyWlLk6GJQsqaUBKTNV-1" target="sVPTDgXXpyOsoHTpZXYm-30">
          <mxGeometry relative="1" as="geometry">
            <mxPoint x="380" y="340" as="sourcePoint" />
          </mxGeometry>
        </mxCell>
        <mxCell id="sVPTDgXXpyOsoHTpZXYm-29" value="" style="edgeStyle=orthogonalEdgeStyle;rounded=0;orthogonalLoop=1;jettySize=auto;html=1;" edge="1" parent="WIyWlLk6GJQsqaUBKTNV-1" source="sVPTDgXXpyOsoHTpZXYm-30" target="sVPTDgXXpyOsoHTpZXYm-32">
          <mxGeometry relative="1" as="geometry" />
        </mxCell>
        <mxCell id="sVPTDgXXpyOsoHTpZXYm-30" value="&lt;br&gt;Pull Request&lt;div&gt;&lt;br&gt;&lt;/div&gt;" style="rounded=1;whiteSpace=wrap;html=1;verticalAlign=top;" vertex="1" parent="WIyWlLk6GJQsqaUBKTNV-1">
          <mxGeometry x="500" y="310" width="120" height="60" as="geometry" />
        </mxCell>
        <mxCell id="sVPTDgXXpyOsoHTpZXYm-31" value="" style="edgeStyle=orthogonalEdgeStyle;rounded=0;orthogonalLoop=1;jettySize=auto;html=1;" edge="1" parent="WIyWlLk6GJQsqaUBKTNV-1" source="sVPTDgXXpyOsoHTpZXYm-32" target="sVPTDgXXpyOsoHTpZXYm-33">
          <mxGeometry relative="1" as="geometry" />
        </mxCell>
        <mxCell id="sVPTDgXXpyOsoHTpZXYm-32" value="&lt;br&gt;Code Review&lt;div&gt;&lt;br&gt;&lt;/div&gt;" style="whiteSpace=wrap;html=1;verticalAlign=top;rounded=1;" vertex="1" parent="WIyWlLk6GJQsqaUBKTNV-1">
          <mxGeometry x="700" y="310" width="120" height="60" as="geometry" />
        </mxCell>
        <mxCell id="sVPTDgXXpyOsoHTpZXYm-39" style="edgeStyle=orthogonalEdgeStyle;rounded=0;orthogonalLoop=1;jettySize=auto;html=1;entryX=0.5;entryY=1;entryDx=0;entryDy=0;" edge="1" parent="WIyWlLk6GJQsqaUBKTNV-1" source="sVPTDgXXpyOsoHTpZXYm-33" target="sVPTDgXXpyOsoHTpZXYm-35">
          <mxGeometry relative="1" as="geometry" />
        </mxCell>
        <mxCell id="sVPTDgXXpyOsoHTpZXYm-33" value="&lt;br&gt;Testing pipeline&lt;div&gt;(build + test)&lt;/div&gt;" style="whiteSpace=wrap;html=1;verticalAlign=top;rounded=1;" vertex="1" parent="WIyWlLk6GJQsqaUBKTNV-1">
          <mxGeometry x="900" y="310" width="120" height="60" as="geometry" />
        </mxCell>
        <mxCell id="sVPTDgXXpyOsoHTpZXYm-56" value="" style="edgeStyle=orthogonalEdgeStyle;rounded=0;orthogonalLoop=1;jettySize=auto;html=1;exitX=1;exitY=1;exitDx=0;exitDy=0;" edge="1" parent="WIyWlLk6GJQsqaUBKTNV-1">
          <mxGeometry relative="1" as="geometry">
            <mxPoint x="1097" y="280" as="sourcePoint" />
            <mxPoint x="830" y="590" as="targetPoint" />
            <Array as="points">
              <mxPoint x="1223" y="280" />
              <mxPoint x="1223" y="520" />
              <mxPoint x="830" y="520" />
              <mxPoint x="830" y="590" />
            </Array>
          </mxGeometry>
        </mxCell>
        <mxCell id="sVPTDgXXpyOsoHTpZXYm-35" value="" style="swimlane;startSize=0;" vertex="1" parent="WIyWlLk6GJQsqaUBKTNV-1">
          <mxGeometry x="1090" y="120" width="170" height="160" as="geometry" />
        </mxCell>
        <mxCell id="sVPTDgXXpyOsoHTpZXYm-40" value="&lt;b style=&quot;font-size: 29px;&quot;&gt;&lt;font style=&quot;font-size: 29px;&quot;&gt;Dev&lt;/font&gt;&lt;/b&gt;" style="text;html=1;align=center;verticalAlign=middle;resizable=0;points=[];autosize=1;strokeColor=none;fillColor=none;" vertex="1" parent="sVPTDgXXpyOsoHTpZXYm-35">
          <mxGeometry x="45" y="55" width="80" height="50" as="geometry" />
        </mxCell>
        <mxCell id="sVPTDgXXpyOsoHTpZXYm-44" value="Merge Pull Request&lt;div&gt;&lt;br&gt;&lt;/div&gt;" style="edgeLabel;html=1;align=center;verticalAlign=middle;resizable=0;points=[];" vertex="1" connectable="0" parent="WIyWlLk6GJQsqaUBKTNV-1">
          <mxGeometry x="1090.0014285714285" y="340" as="geometry" />
        </mxCell>
        <mxCell id="sVPTDgXXpyOsoHTpZXYm-57" value="Auto Deploy&lt;div style=&quot;font-size: 16px;&quot;&gt;Sync environment, Build, Test, Deploy&lt;/div&gt;&lt;div style=&quot;font-size: 16px;&quot;&gt;&lt;div style=&quot;font-size: 29px;&quot;&gt;&lt;br style=&quot;font-size: 29px;&quot;&gt;&lt;/div&gt;&lt;/div&gt;" style="text;html=1;align=center;verticalAlign=middle;resizable=0;points=[];autosize=1;strokeColor=none;fillColor=none;fontSize=29;fontStyle=1" vertex="1" parent="WIyWlLk6GJQsqaUBKTNV-1">
          <mxGeometry x="875" y="440" width="290" height="100" as="geometry" />
        </mxCell>
        <mxCell id="sVPTDgXXpyOsoHTpZXYm-62" value="" style="endArrow=classic;html=1;rounded=0;entryX=0.5;entryY=1;entryDx=0;entryDy=0;exitX=0.684;exitY=-0.002;exitDx=0;exitDy=0;exitPerimeter=0;" edge="1" parent="WIyWlLk6GJQsqaUBKTNV-1" source="sVPTDgXXpyOsoHTpZXYm-35" target="sVPTDgXXpyOsoHTpZXYm-68">
          <mxGeometry width="50" height="50" relative="1" as="geometry">
            <mxPoint x="1200" y="120" as="sourcePoint" />
            <mxPoint x="1200" y="-50" as="targetPoint" />
            <Array as="points" />
          </mxGeometry>
        </mxCell>
        <mxCell id="sVPTDgXXpyOsoHTpZXYm-63" value="" style="endArrow=classic;html=1;rounded=0;" edge="1" parent="WIyWlLk6GJQsqaUBKTNV-1">
          <mxGeometry width="50" height="50" relative="1" as="geometry">
            <mxPoint x="1130" y="520" as="sourcePoint" />
            <mxPoint x="1130" y="590" as="targetPoint" />
          </mxGeometry>
        </mxCell>
        <mxCell id="sVPTDgXXpyOsoHTpZXYm-64" value="Backend&lt;div&gt;studyfiedbackenddev.onrender.com&lt;/div&gt;" style="ellipse;shape=cloud;whiteSpace=wrap;html=1;" vertex="1" parent="WIyWlLk6GJQsqaUBKTNV-1">
          <mxGeometry x="660" y="585" width="340" height="80" as="geometry" />
        </mxCell>
        <mxCell id="sVPTDgXXpyOsoHTpZXYm-65" value="FrontEnd&lt;div&gt;saber-azouzi.github.io&lt;/div&gt;" style="ellipse;shape=cloud;whiteSpace=wrap;html=1;" vertex="1" parent="WIyWlLk6GJQsqaUBKTNV-1">
          <mxGeometry x="960" y="585" width="340" height="80" as="geometry" />
        </mxCell>
        <mxCell id="sVPTDgXXpyOsoHTpZXYm-66" value="Manual Merge&lt;div style=&quot;font-size: 16px;&quot;&gt;Merge main&lt;/div&gt;" style="text;html=1;align=center;verticalAlign=middle;resizable=0;points=[];autosize=1;strokeColor=none;fillColor=none;fontSize=29;fontStyle=1" vertex="1" parent="WIyWlLk6GJQsqaUBKTNV-1">
          <mxGeometry x="1220" y="-30" width="210" height="70" as="geometry" />
        </mxCell>
        <mxCell id="sVPTDgXXpyOsoHTpZXYm-71" style="edgeStyle=orthogonalEdgeStyle;rounded=0;orthogonalLoop=1;jettySize=auto;html=1;exitX=0;exitY=0.5;exitDx=0;exitDy=0;" edge="1" parent="WIyWlLk6GJQsqaUBKTNV-1" source="sVPTDgXXpyOsoHTpZXYm-68">
          <mxGeometry relative="1" as="geometry">
            <mxPoint x="414" y="-260" as="targetPoint" />
            <mxPoint x="994" y="-139.99999999999977" as="sourcePoint" />
            <Array as="points">
              <mxPoint x="704" y="-140" />
              <mxPoint x="414" y="-139" />
            </Array>
          </mxGeometry>
        </mxCell>
        <mxCell id="sVPTDgXXpyOsoHTpZXYm-68" value="" style="swimlane;startSize=0;" vertex="1" parent="WIyWlLk6GJQsqaUBKTNV-1">
          <mxGeometry x="1120" y="-220" width="170" height="160" as="geometry" />
        </mxCell>
        <mxCell id="sVPTDgXXpyOsoHTpZXYm-69" value="&lt;b style=&quot;font-size: 29px;&quot;&gt;&lt;font style=&quot;font-size: 29px;&quot;&gt;Main&lt;/font&gt;&lt;/b&gt;" style="text;html=1;align=center;verticalAlign=middle;resizable=0;points=[];autosize=1;strokeColor=none;fillColor=none;" vertex="1" parent="sVPTDgXXpyOsoHTpZXYm-68">
          <mxGeometry x="40" y="55" width="90" height="50" as="geometry" />
        </mxCell>
        <mxCell id="sVPTDgXXpyOsoHTpZXYm-70" value="Manual Deploy&lt;br&gt;&lt;span style=&quot;font-size: 16px; background-color: initial;&quot;&gt;Build, Test, Run E2ES, Deploy&lt;/span&gt;" style="text;html=1;align=center;verticalAlign=middle;resizable=0;points=[];autosize=1;strokeColor=none;fillColor=none;fontSize=29;fontStyle=1" vertex="1" parent="WIyWlLk6GJQsqaUBKTNV-1">
          <mxGeometry x="860" y="-240" width="240" height="80" as="geometry" />
        </mxCell>
        <mxCell id="sVPTDgXXpyOsoHTpZXYm-72" value="" style="endArrow=classic;html=1;rounded=0;" edge="1" parent="WIyWlLk6GJQsqaUBKTNV-1">
          <mxGeometry width="50" height="50" relative="1" as="geometry">
            <mxPoint x="719.29" y="-140" as="sourcePoint" />
            <mxPoint x="719.29" y="-260" as="targetPoint" />
          </mxGeometry>
        </mxCell>
        <mxCell id="sVPTDgXXpyOsoHTpZXYm-73" value="Backend&lt;div&gt;studyfiedbackend.onrender.com&lt;/div&gt;" style="ellipse;shape=cloud;whiteSpace=wrap;html=1;" vertex="1" parent="WIyWlLk6GJQsqaUBKTNV-1">
          <mxGeometry x="240" y="-350" width="340" height="80" as="geometry" />
        </mxCell>
        <mxCell id="sVPTDgXXpyOsoHTpZXYm-74" value="FrontEnd&lt;div&gt;&lt;span style=&quot;background-color: initial;&quot;&gt;fabeure.github.io&lt;/span&gt;&lt;br&gt;&lt;/div&gt;" style="ellipse;shape=cloud;whiteSpace=wrap;html=1;" vertex="1" parent="WIyWlLk6GJQsqaUBKTNV-1">
          <mxGeometry x="550" y="-350" width="340" height="80" as="geometry" />
        </mxCell>
      </root>
    </mxGraphModel>
  </diagram>
</mxfile>
